<?xml version="1.0" encoding="UTF-8"?><svg id="a" xmlns="http://www.w3.org/2000/svg" viewBox="0 0 1339.6 397.85"><defs><style>.b{fill:#e6165c;}</style></defs><path class="b" d="M494.53,294.78v60.76h-35.53V183.1h67.27c12.95,0,24.34,2.37,34.17,7.11,9.83,4.74,17.39,11.47,22.68,20.19,5.29,8.72,7.93,18.65,7.93,29.79,0,16.9-5.79,30.22-17.35,39.97-11.57,9.75-27.58,14.63-48.02,14.63h-31.15Zm0-28.78h31.74c9.4,0,16.56-2.21,21.5-6.63,4.93-4.42,7.4-10.74,7.4-18.95s-2.49-15.28-7.46-20.49c-4.97-5.21-11.84-7.89-20.61-8.05h-32.57v54.12Z"/><path class="b" d="M687.1,355.3c-1.74-3.38-2.99-7.59-3.77-12.62-9.11,10.15-20.95,15.23-35.53,15.23-13.8,0-25.23-3.99-34.3-11.97-9.07-7.98-13.6-18.04-13.6-30.19,0-14.92,5.53-26.38,16.59-34.36,11.06-7.98,27.05-12.02,47.96-12.1h17.31v-8.07c0-6.51-1.67-11.71-5.01-15.62-3.34-3.91-8.61-5.86-15.81-5.86-6.34,0-11.3,1.52-14.9,4.56-3.6,3.04-5.4,7.2-5.4,12.49h-37.61c0-8.16,2.52-15.7,7.55-22.65,5.03-6.94,12.15-12.38,21.35-16.33,9.2-3.95,19.52-5.92,30.98-5.92,17.35,0,31.13,4.36,41.32,13.08,10.19,8.72,15.29,20.98,15.29,36.77v61.04c.09,13.36,1.95,23.47,5.6,30.32v2.21h-38Zm-31.11-26.16c5.55,0,10.67-1.24,15.36-3.71,4.69-2.47,8.16-5.79,10.41-9.96v-24.21h-14.06c-18.83,0-28.85,6.51-30.07,19.52l-.13,2.21c0,4.69,1.65,8.55,4.95,11.58,3.3,3.04,7.81,4.56,13.54,4.56"/><path class="b" d="M822.63,249.81c-5.13-.69-9.65-1.04-13.56-1.04-14.25,0-23.6,4.82-28.03,14.47v92.3h-37.67V214.48h35.59l1.04,16.82c7.56-12.95,18.03-19.42,31.42-19.42,4.17,0,8.08,.57,11.73,1.7l-.52,36.24Z"/><path class="b" d="M887.89,186.54v33.32h23.17v26.56h-23.17v67.64c0,5.01,.96,8.6,2.88,10.77,1.92,2.17,5.59,3.26,11.02,3.26,4.01,0,7.56-.29,10.65-.88v27.43c-7.1,2.17-14.41,3.26-21.92,3.26-25.39,0-38.33-12.82-38.83-38.46v-73.03h-19.79v-26.56c5.62,0,11.04-1.37,15.85-3.87,7.18-3.74,12.63-10.13,15.63-17.65l4.71-11.8h19.8Z"/><path class="b" d="M969.78,217.31l1.15,15.97c9.88-12.35,23.12-18.52,39.73-18.52,14.65,0,25.55,4.3,32.7,12.9,7.15,8.6,10.82,21.46,10.99,38.58v89.3h-36.92v-88.61c0-7.85-1.71-13.55-5.11-17.09-3.41-3.54-9.07-5.31-16.99-5.31-10.39,0-18.18,4.44-23.38,13.32v97.7h-36.92V217.31h34.75Z"/><path class="b" d="M1145.71,357.9c-20.58,0-37.34-6.31-50.27-18.94-12.93-12.63-19.39-29.45-19.39-50.46v-3.63c0-14.09,2.72-26.7,8.17-37.82,5.45-11.11,13.17-19.67,23.16-25.68,9.99-6.01,21.38-9.02,34.18-9.02,19.2,0,34.31,6.06,45.34,18.16,11.03,12.11,16.54,29.28,16.54,51.5v15.31h-89.38c1.21,9.17,4.87,16.52,10.96,22.05,6.1,5.53,13.82,8.3,23.16,8.3,14.44,0,25.73-5.23,33.86-15.7l18.42,20.63c-5.62,7.96-13.23,14.16-22.83,18.62-9.6,4.45-20.24,6.68-31.91,6.68m-4.28-115.33c-7.44,0-13.47,2.52-18.1,7.56-4.63,5.04-7.59,12.25-8.89,21.63h52.15v-3c-.18-8.34-2.42-14.79-6.75-19.35-4.32-4.56-10.47-6.84-18.42-6.84"/><path class="b" d="M1306.55,252.22c-5.01-.68-9.43-1.02-13.25-1.02-13.93,0-23.06,4.71-27.39,14.14v90.2h-36.82V217.69h34.78l1.02,16.43c7.39-12.66,17.62-18.98,30.7-18.98,4.08,0,7.9,.56,11.47,1.66l-.51,35.42Z"/><path class="b" d="M606.7,76.27h-20.24v69.37c0,1.32-1.07,2.38-2.38,2.38h-15.61c-1.32,0-2.38-1.07-2.38-2.38V76.27h-20.36c-1.26,.05-2.33-.93-2.38-2.19v-12.34c.01-1.26,1.05-2.28,2.31-2.27,.02,0,.05,0,.07,0h60.97c1.32-.06,2.43,.95,2.5,2.27v12.27c-.07,1.31-1.19,2.32-2.5,2.26"/><path class="b" d="M671.67,147.52c-4.17,.59-11.19,1.55-24.05,1.55-15.37,0-28.95-3.93-28.95-25.62v-39.58c0-21.68,13.7-25.5,29.07-25.5,12.86,0,19.76,.95,23.94,1.55,1.67,.24,2.38,.84,2.38,2.38v11.1c0,1.32-1.07,2.38-2.38,2.38h-25.12c-5.6,0-7.62,1.9-7.62,8.1v10.84h31.8c1.32,0,2.38,1.07,2.38,2.39v11.32c0,1.32-1.07,2.38-2.38,2.38h-31.8v12.63c0,6.19,2.02,8.1,7.62,8.1h25.12c1.32,0,2.38,1.07,2.38,2.39v11.08c0,1.54-.72,2.26-2.38,2.49"/><path class="b" d="M761.57,147.99h-18.94c-1.55,0-2.27-.49-3.1-1.79l-16.43-26.08-14.88,25.5c-.84,1.43-1.67,2.38-2.97,2.38h-17.63c-1.19,0-1.79-.72-1.79-1.55,.02-.29,.1-.58,.24-.84l25.81-43.04-26.08-40.87c-.13-.22-.21-.46-.24-.72,.09-.91,.87-1.59,1.79-1.55h19.18c1.31,0,2.27,1.19,2.97,2.27l15.24,24.07,14.75-24.07c.59-1.07,1.67-2.27,2.97-2.27h17.63c.91-.04,1.7,.64,1.79,1.55-.02,.25-.11,.5-.24,.72l-25.95,41.12,27.06,42.79c.21,.36,.33,.77,.36,1.19,0,.69-.59,1.17-1.55,1.17"/><path class="b" d="M514.78,59.7c-.88,0-1.63,.62-1.8,1.48l-17.3,64.01c-.24,1.31-.59,1.79-1.67,1.79s-1.43-.49-1.67-1.79l-17.32-64.03c-.17-.86-.92-1.48-1.8-1.48h-17.02c-1.02,0-1.84,.83-1.84,1.84,0,.14,.02,.28,.05,.41,0,0,21.13,73.41,21.36,74.14,2.82,8.75,9.66,12.93,18.37,12.93s15.53-4.38,18.36-12.9c.34-.99,20.99-74.16,20.99-74.16,.23-.99-.39-1.98-1.38-2.2-.13-.03-.27-.05-.41-.05h-16.92Z"/><path class="b" d="M378.24,44.36H94.44c-22.01,0-36.1,23.39-25.8,42.84l28.39,53.75H45.57c-10.45,0-18.92,8.48-18.92,18.93,0,3.07,.75,6.09,2.18,8.81l91.31,172.82c4.89,9.24,16.34,12.76,25.58,7.87,3.35-1.77,6.09-4.52,7.87-7.87l24.8-46.68,31.11,58.9c10.95,20.72,40.61,20.75,51.6,.06L403.34,86.12c10.05-18.93-3.67-41.76-25.1-41.76m-127.48,114.37l-61.33,115.45c-3.26,6.15-10.88,8.49-17.03,5.23-2.22-1.18-4.05-3-5.23-5.23l-60.74-114.96c-3.26-6.15-.91-13.77,5.24-17.03,1.81-.96,3.82-1.46,5.86-1.46h122.42c6.77,0,12.26,5.49,12.26,12.26,0,2.01-.49,3.98-1.43,5.75"/></svg>