<svg viewBox="0 0 256 68" fill="none" xmlns="http://www.w3.org/2000/svg">
<path d="M28.7998 62.8V10.8H40.3998V35.6L56.7998 10.8H69.5998L50.3998 39.6L70.3998 62.8H56.7998L45.1998 43.6L40.3998 48.4V62.8H28.7998Z" fill="currentColor"/>
<path d="M85.5996 62.8V10.8H117.6V20.4H97.5996V32.4H115.2V42H97.5996V53.2H118.8V62.8H85.5996Z" fill="currentColor"/>
<path d="M132 62.8V10.8H142.8V62.8H132Z" fill="currentColor"/>
<path d="M160.8 62.8V10.8H192.8V20.4H171.2V32.4H189.6V42H171.2V53.2H194V62.8H160.8Z" fill="currentColor"/>
<path d="M224.4 63.6C236.4 63.6 244.4 56.4 244.4 44.4C244.4 32.4 236.4 25.2 224.4 25.2H210.8V62.8H199.6V10.8H224.4C241.2 10.8 254.8 25.2 254.8 44.4C254.8 60 245.2 70.8 224.4 70.8C214.4 70.8 205.2 66.8 199.6 63.6H224.4ZM210.8 33.6H223.2C228.8 33.6 232 36.8 232 44.4C232 52 228.8 55.2 223.2 55.2H210.8V33.6Z" fill="currentColor"/>
</svg>