<?xml version="1.0" encoding="UTF-8"?>
<svg id="Camada_1" xmlns="http://www.w3.org/2000/svg" version="1.1" viewBox="0 0 272 92">
  <!-- Generator: Adobe Illustrator 29.5.0, SVG Export Plug-In . SVG Version: 2.1.0 Build 137)  -->
  <defs>
    <style>
      .st0 {
        fill: #fff;
      }
    </style>
  </defs>
  <path class="st0" d="M115.8,47.2c0,12.8-10,22.2-22.2,22.2s-22.2-9.4-22.2-22.2,10-22.2,22.2-22.2,22.2,9.3,22.2,22.2ZM106,47.2c0-8-5.8-13.4-12.5-13.4s-12.5,5.5-12.5,13.4,5.8,13.4,12.5,13.4,12.5-5.5,12.5-13.4Z"/>
  <path class="st0" d="M163.8,47.2c0,12.8-10,22.2-22.2,22.2s-22.2-9.4-22.2-22.2,10-22.2,22.2-22.2,22.2,9.3,22.2,22.2ZM154,47.2c0-8-5.8-13.4-12.5-13.4s-12.5,5.5-12.5,13.4,5.8,13.4,12.5,13.4,12.5-5.5,12.5-13.4Z"/>
  <path class="st0" d="M209.8,26.3v39.8c0,16.4-9.7,23.1-21.1,23.1s-17.2-7.2-19.7-13.1l8.5-3.5c1.5,3.6,5.2,7.9,11.2,7.9s11.8-4.5,11.8-13v-3.2h-.3c-2.2,2.7-6.4,5-11.7,5-11.1,0-21.2-9.7-21.2-22.1s10.2-22.3,21.2-22.3,9.5,2.4,11.7,5h.3v-3.6h9.3ZM201.2,47.3c0-7.8-5.2-13.5-11.8-13.5s-12.4,5.7-12.4,13.5,5.6,13.4,12.4,13.4,11.8-5.6,11.8-13.4Z"/>
  <path class="st0" d="M225,3v65h-9.5V3h9.5Z"/>
  <path class="st0" d="M262,54.5l7.6,5c-2.4,3.6-8.3,9.8-18.5,9.8s-22-9.7-22-22.2,9.5-22.2,20.9-22.2,17.1,9.2,19,14.1l1,2.5-29.6,12.3c2.3,4.5,5.8,6.7,10.8,6.7s8.4-2.4,10.9-6.1h0ZM238.7,46.5l19.8-8.2c-1.1-2.8-4.4-4.7-8.2-4.7s-11.8,4.4-11.6,12.9Z"/>
  <path class="st0" d="M35.3,41.4v-9.4h31.7c.3,1.6.5,3.6.5,5.7,0,7.1-1.9,15.8-8.2,22-6,6.3-13.8,9.7-24,9.7-19,0-34.9-15.5-34.9-34.4S16.3.5,35.3.5s18,4.1,23.6,9.5l-6.6,6.6c-4-3.8-9.5-6.7-17-6.7-13.9,0-24.7,11.2-24.7,25s10.8,25,24.7,25,14.1-3.6,17.4-6.9,4.4-6.5,5.1-11.7h-22.5Z"/>
</svg>