<?xml version="1.0" encoding="utf-8"?>
<!-- Generator: Adobe Illustrator 27.3.1, SVG Export Plug-In . SVG Version: 6.00 Build 0)  -->
<svg version="1.1" id="Camada_1" xmlns="http://www.w3.org/2000/svg" xmlns:xlink="http://www.w3.org/1999/xlink" x="0px" y="0px"
	 viewBox="0 0 492.9 138.1" style="enable-background:new 0 0 492.9 138.1;" xml:space="preserve">
<style type="text/css">
	.st0{fill:#FFFFFF;}
	.st1{fill:#C405F2;}
</style>
<rect x="284.6" class="st0" width="31.3" height="135.3"/>
<polygon class="st0" points="375,101 375,136 284.8,85.2 284.8,50.2 "/>
<polygon class="st1" points="284.6,84.1 284.6,120.4 375.6,69.6 375.6,33.3 "/>
<polygon class="st0" points="124.9,29.1 108.6,86.8 92.4,29.6 92.5,29.1 92.2,29.1 62.6,29.1 62.3,29.1 62.5,29.6 46.3,86.8 
	29.9,29.1 0,29.1 13.7,78 13.9,77.5 30.1,135.3 32.9,135.3 33.1,135.3 60.9,135.3 61,135.3 62.4,135.3 77.5,82.1 92.4,135.3 
	95.3,135.3 95.4,135.3 123.2,135.3 123.3,135.3 124.7,135.3 154.8,29.1 "/>
<path class="st0" d="M192.1,102.1c5.2,5.4,11.7,8.2,19.6,8.2s14.4-2.7,19.6-8.4c5.2-5.6,8-12.2,8-20c0-7.8-2.7-14.4-8-19.8
	c-5.2-5.4-11.7-8.2-19.6-8.2s-14.4,2.7-19.6,8.2c-5.1,5.4-7.6,12-7.6,19.8C184.5,89.9,187,96.5,192.1,102.1 M239.3,29.2h28.8v106.2
	h-28.8v-10.9c-9.1,9.1-20,13.6-32.8,13.6c-15.2,0-27.8-5.4-37.7-16.1c-9.9-10.9-14.8-24.3-14.8-40.4c0-15.9,5.1-29.1,15-39.6
	c9.9-10.5,22.5-15.7,37.5-15.7c12.8,0,23.7,4.7,32.8,14V29.2z"/>
<path class="st0" d="M413.4,70.8h50.1C460.7,58.6,451.7,51,439.1,51C426.7,51,416.7,58.4,413.4,70.8 M492,92.6h-78.3
	c3.7,13.4,13.4,20,29,20c12,0,23.1-3.5,33.2-10.3l12,20.8c-13,9.9-28.6,14.8-46.6,14.8c-18.9,0-33.2-5.4-43.3-16.1
	c-9.9-10.7-15-23.9-15-39.6c0-16.1,5.2-29.3,15.5-39.8c10.3-10.7,23.9-15.9,40.6-15.9c15.7,0,28.6,4.9,38.7,14.4
	c10.1,9.5,15.2,22.5,15.2,39.1C492.9,83.5,492.5,87.7,492,92.6"/>
</svg>
