<?xml version="1.0" encoding="UTF-8"?>
<svg id="Camada_1" xmlns="http://www.w3.org/2000/svg" version="1.1" viewBox="0 0 443.7 118.1">
  <!-- Generator: Adobe Illustrator 29.5.0, SVG Export Plug-In . SVG Version: 2.1.0 Build 137)  -->
  <defs>
    <style>
      .st0, .st1 {
        fill: #fff;
      }

      .st1 {
        fill-rule: evenodd;
      }
    </style>
  </defs>
  <path id="svg_1" class="st1" d="M204.9,47.1c-11.2,0-20.6-7.6-23.2-18h-27.5c-5.9,0-10.9,4.2-11.8,10l-1,5.9c-.9,5.6-3.8,10.5-7.8,14.1,4,3.5,6.9,8.4,7.8,14.1l1,5.9c1,5.8,6,10,11.8,10h3.5c2.7-10.4,12.1-18,23.2-18s24,10.7,24,24-10.7,24-24,24-20.6-7.6-23.2-18h-3.5c-11.7,0-21.7-8.5-23.7-20.1l-1-5.9c-1-5.8-6-10-11.8-10h-9.5c-2.7,10.4-12.1,18-23.2,18s-20.6-7.6-23.2-18h-13.5c-2.7,10.4-12.1,18-23.2,18S.9,72.4.9,59.1s10.7-24,24-24,20.6,7.6,23.2,18h13.5c2.7-10.4,12.1-18,23.2-18s20.6,7.6,23.2,18h9.5c5.9,0,10.9-4.2,11.8-10l1-5.9c1.9-11.6,11.9-20.1,23.7-20.1h27.5c2.7-10.4,12.1-18,23.2-18s24,10.7,24,24-10.7,24-24,24ZM204.9,35.1c6.6,0,12-5.4,12-12s-5.4-12-12-12-12,5.4-12,12,5.4,12,12,12ZM24.9,71.1c6.6,0,12-5.4,12-12s-5.4-12-12-12-12,5.4-12,12,5.4,12,12,12ZM96.9,59.1c0,6.6-5.4,12-12,12s-12-5.4-12-12,5.4-12,12-12,12,5.4,12,12ZM192.9,95.1c0,6.6-5.4,12-12,12s-12-5.4-12-12,5.4-12,12-12,12,5.4,12,12Z"/>
  <path id="svg_2" class="st1" d="M373,51v-.6c4.2-2.1,8.4-5.7,8.4-12.9,0-10.3-8.5-16.5-20.2-16.5s-20.6,6.6-20.6,16.7,4,10.6,8.4,12.7v.6c-4.9,1.7-10.7,6.9-10.7,15.4s8.6,17.6,22.7,17.6,22.5-7.2,22.5-17.6-5.7-13.6-10.6-15.4h0ZM361.1,29.9c4.8,0,8.3,3,8.3,8.2s-3.6,8.2-8.3,8.2-8.6-3.1-8.6-8.2,3.7-8.2,8.6-8.2ZM361.1,74.9c-5.5,0-10-3.5-10-9.5s3.7-9.5,9.9-9.5,9.8,4,9.8,9.7-4.3,9.3-9.7,9.3Z"/>
  <path id="svg_3" class="st0" d="M398.2,83.1h12.2v-25.8c0-8.5,5.1-12.2,10.9-12.2s10.2,3.8,10.2,11.6v26.4h12.2v-28.9c0-12.5-7.2-19.7-18.6-19.7s-11.1,2.9-14,6.6h-.8l-1-5.6h-11.1v47.7Z"/>
  <path id="svg_4" class="st0" d="M290.4,83.1h-12.2v-47.7h11.1l1,5.6h.8c2.9-3.7,6.9-6.6,14-6.6,11.3,0,18.6,7.2,18.6,19.7v28.9h-12.2v-26.4c0-7.8-4.5-11.6-10.2-11.6s-10.9,3.7-10.9,12.2v25.8Z"/>
</svg>