<?xml version="1.0" encoding="utf-8"?>
<!-- Generator: Adobe Illustrator 29.5.0, SVG Export Plug-In . SVG Version: 9.03 Build 0)  -->
<svg version="1.0" id="katman_1" xmlns="http://www.w3.org/2000/svg" xmlns:xlink="http://www.w3.org/1999/xlink" x="0px" y="0px"
	 viewBox="0 0 639.2 210.3" style="enable-background:new 0 0 639.2 210.3;" xml:space="preserve">
<style type="text/css">
	.st0{fill:#FFFFFF;}
	.st1{clip-path:url(#SVGID_00000059287994449899434410000009005512273036455809_);}
	.st2{clip-path:url(#SVGID_00000148626259080359771150000012869605076960172216_);}
	.st3{clip-path:url(#SVGID_00000084502182465726140640000004518306566269075118_);}
</style>
<g id="Group_7">
	<g>
		<g>
			<g>
				<g>
					<defs>
						<path id="SVGID_1_" d="M138.6,129.4h-24.5c-1.9,0-3.4-1.5-3.4-3.4V35.6c0-1.9,1.5-3.4,3.4-3.4h24.5c1.9,0,3.4,1.5,3.4,3.4V126
							C141.9,127.9,140.4,129.4,138.6,129.4z M29.5,128.2l40.6-80.8c0.8-1.7,0.2-3.7-1.5-4.5l-21.9-11c-1.7-0.8-3.7-0.2-4.5,1.5
							L1.6,114.2c-0.8,1.7-0.2,3.7,1.5,4.5l21.9,11C26.7,130.6,28.7,129.9,29.5,128.2z M89.6,127.9L107,39.8c0.4-1.8-0.8-3.6-2.6-4
							l-24-4.8c-1.8-0.4-3.6,0.8-4,2.7L59,121.8c-0.4,1.8,0.8,3.6,2.6,4l24,4.9C87.5,130.9,89.3,129.7,89.6,127.9z"/>
					</defs>
					<use xlink:href="#SVGID_1_"  style="overflow:visible;fill:#FFFFFF;"/>
					<clipPath id="SVGID_00000158747911627905078280000013565573414053371557_">
						<use xlink:href="#SVGID_1_"  style="overflow:visible;"/>
					</clipPath>
				</g>
			</g>
		</g>
	</g>
	<g>
		<g>
			<g>
				<path id="SVGID_7_" class="st0" d="M138.6,129.4h-24.5c-1.9,0-3.4-1.5-3.4-3.4l0,0V35.6c0-1.9,1.5-3.4,3.4-3.4l0,0h24.5
					c1.9,0,3.4,1.5,3.4,3.4l0,0V126C141.9,127.9,140.4,129.4,138.6,129.4L138.6,129.4z M29.5,128.2l40.6-80.8
					c0.8-1.7,0.2-3.7-1.5-4.5l-21.9-11c-1.7-0.8-3.7-0.2-4.5,1.5L1.6,114.2c-0.8,1.7-0.2,3.7,1.5,4.5l21.9,11
					C26.7,130.6,28.7,129.9,29.5,128.2z M89.6,127.9L107,39.8c0.4-1.8-0.8-3.6-2.6-4l-24-4.9c-1.8-0.4-3.6,0.8-4,2.6l0,0L59,121.6
					c-0.4,1.8,0.8,3.6,2.6,4l24,4.9C87.5,130.9,89.3,129.7,89.6,127.9L89.6,127.9L89.6,127.9z"/>
			</g>
			<g>
				<g>
					<defs>
						<path id="SVGID_00000049184666642665573660000012427452912245701514_" d="M138.6,129.4h-24.5c-1.9,0-3.4-1.5-3.4-3.4V35.6
							c0-1.9,1.5-3.4,3.4-3.4h24.5c1.9,0,3.4,1.5,3.4,3.4V126C141.9,127.9,140.4,129.4,138.6,129.4z M29.5,128.2l40.6-80.8
							c0.8-1.7,0.2-3.7-1.5-4.5l-21.9-11c-1.7-0.8-3.7-0.2-4.5,1.5L1.6,114.2c-0.8,1.7-0.2,3.7,1.5,4.5l21.9,11
							C26.7,130.6,28.7,129.9,29.5,128.2z M89.6,127.9L107,39.8c0.4-1.8-0.8-3.6-2.6-4l-24-4.8c-1.8-0.4-3.6,0.8-4,2.7L59,121.8
							c-0.4,1.8,0.8,3.6,2.6,4l24,4.9C87.5,130.9,89.3,129.7,89.6,127.9z"/>
					</defs>
					<use xlink:href="#SVGID_00000049184666642665573660000012427452912245701514_"  style="overflow:visible;fill:#FFFFFF;"/>
					<clipPath id="SVGID_00000163066676258778639890000012199695061592333961_">
						<use xlink:href="#SVGID_00000049184666642665573660000012427452912245701514_"  style="overflow:visible;"/>
					</clipPath>
					<g id="Group_6_8_" style="clip-path:url(#SVGID_00000163066676258778639890000012199695061592333961_);">
						<g id="Group_5_8_">
							<g id="Group_4_8_">
								<g>
									<g>
										<rect id="SVGID_9_" x="-7.3" y="22.4" class="st0" width="157.8" height="116.8"/>
									</g>
									<g>
										<g>
											<defs>
												
													<rect id="SVGID_00000161633484521797584650000015231426760560069822_" x="-7.3" y="22.4" width="157.8" height="116.8"/>
											</defs>
											
												<use xlink:href="#SVGID_00000161633484521797584650000015231426760560069822_"  style="overflow:visible;fill:#FFFFFF;"/>
											<clipPath id="SVGID_00000168116401260028638370000015833940275776716422_">
												<use xlink:href="#SVGID_00000161633484521797584650000015231426760560069822_"  style="overflow:visible;"/>
											</clipPath>
											<g id="Group_3_8_" style="clip-path:url(#SVGID_00000168116401260028638370000015833940275776716422_);">
												<g id="Group_2_8_">
													<g>
														<g>
															<rect id="SVGID_11_" x="-7.3" y="22.4" class="st0" width="157.8" height="116.8"/>
														</g>
														<g>
															<g>
																<defs>
																	
																		<rect id="SVGID_00000161599955305918236530000013821267733298137773_" x="-7.3" y="22.4" width="157.8" height="116.8"/>
																</defs>
																
																	<use xlink:href="#SVGID_00000161599955305918236530000013821267733298137773_"  style="overflow:visible;fill:#FFFFFF;"/>
																<clipPath id="SVGID_00000036246160701704474990000011203999486969033111_">
																	<use xlink:href="#SVGID_00000161599955305918236530000013821267733298137773_"  style="overflow:visible;"/>
																</clipPath>
																<g id="Group_1_8_" style="clip-path:url(#SVGID_00000036246160701704474990000011203999486969033111_);">
																	<rect id="Rectangle_1_8_" x="-7.8" y="21.6" class="st0" width="158.3" height="118.1"/>
																</g>
															</g>
														</g>
													</g>
												</g>
											</g>
										</g>
									</g>
								</g>
							</g>
						</g>
					</g>
				</g>
			</g>
		</g>
	</g>
	<g>
		<g>
			<g>
				<g>
					<defs>
						<path id="SVGID_00000151509758833701237860000000570710821559390911_" d="M138.6,129.4h-24.5c-1.9,0-3.4-1.5-3.4-3.4V35.6
							c0-1.9,1.5-3.4,3.4-3.4h24.5c1.9,0,3.4,1.5,3.4,3.4V126C141.9,127.9,140.4,129.4,138.6,129.4z M29.5,128.2l40.6-80.8
							c0.8-1.7,0.2-3.7-1.5-4.5l-21.9-11c-1.7-0.8-3.7-0.2-4.5,1.5L1.6,114.2c-0.8,1.7-0.2,3.7,1.5,4.5l21.9,11
							C26.7,130.6,28.7,129.9,29.5,128.2z M89.6,127.9L107,39.8c0.4-1.8-0.8-3.6-2.6-4l-24-4.8c-1.8-0.4-3.6,0.8-4,2.7L59,121.8
							c-0.4,1.8,0.8,3.6,2.6,4l24,4.9C87.5,130.9,89.3,129.7,89.6,127.9z"/>
					</defs>
					<use xlink:href="#SVGID_00000151509758833701237860000000570710821559390911_"  style="overflow:visible;fill:#FFFFFF;"/>
					<clipPath id="SVGID_00000031206928975859593940000014352308072618064823_">
						<use xlink:href="#SVGID_00000151509758833701237860000000570710821559390911_"  style="overflow:visible;"/>
					</clipPath>
				</g>
			</g>
		</g>
	</g>
</g>
<path id="Path_2" class="st0" d="M219.8,68.6v57.5c0,1.9-1.5,3.4-3.4,3.4l0,0h-24.8c-1.9,0-3.4-1.5-3.4-3.4l0,0V35.4
	c0-1.9,1.5-3.4,3.4-3.4l0,0h24.8c1.9,0,3.4,1.5,3.4,3.4l0,0v7.1c6.2-7.8,15-12.7,27.3-12.7c11.5,0,21.5,4.7,27.5,13.5
	c7.4-8.8,17.9-13.5,30.8-13.5c21.8,0,36.9,12.9,36.9,37.4V126c0,1.9-1.5,3.4-3.4,3.4l0,0h-24.8c-1.9,0-3.4-1.5-3.4-3.4l0,0V73.9
	c0-10.7-6-16-14.2-16c-6.8,0-12.3,4.3-15.4,10.7v57.5c0,1.9-1.5,3.4-3.4,3.4l0,0h-24.8c-1.9,0-3.4-1.5-3.4-3.4l0,0V73.9
	c0-10.7-6-16-14.2-16C228.2,57.9,222.9,62.2,219.8,68.6z"/>
<path id="Path_3" class="st0" d="M383.8,131.4c-18.3,0-33.7-12.1-33.7-30.8c0-17.2,11.3-25.2,32.4-30.6l26.9-7
	c-0.8-6.4-5.9-9.6-14-9.6c-7.3,0-12.5,2.8-14.9,8.3c-0.6,1.6-2.3,2.4-3.9,2.1l-21.3-5.1c-1.8-0.4-3-2.3-2.5-4.1
	c0-0.1,0.1-0.2,0.1-0.4C359,37.6,376,29,396.6,29c27.7,0,43.7,13.1,43.7,36.1v61c0,1.9-1.5,3.4-3.4,3.4l0,0h-23.5
	c-1.8,0-3.3-1.5-3.4-3.3l-0.1-5.1l-0.2,0.2C401.5,128.1,393.7,131.4,383.8,131.4z M391.8,107.1c4.1,0,7.2-1.2,11.9-3.9l5.5-3.3
	l0.2-15.8l-14,3.9c-9.6,2.7-13.8,5.1-13.8,10.5C381.4,104.5,386.7,107.1,391.8,107.1z"/>
<path id="Path_4" class="st0" d="M490.6,83.5l-9.6,8.8v33.9c0,1.9-1.5,3.4-3.4,3.4l0,0h-24.2c-1.9,0-3.4-1.5-3.4-3.4l0,0V3.4
	c0-1.9,1.5-3.4,3.4-3.4l0,0h24.2c1.9,0,3.4,1.5,3.4,3.4l0,0v55.5l28.3-26c0.6-0.6,1.4-0.9,2.3-0.9h29.9c1.9,0,3.4,1.5,3.4,3.4
	c0,0.9-0.4,1.9-1.1,2.5l-29,26.5l33.1,60.1c0.9,1.6,0.3,3.7-1.3,4.6c-0.5,0.3-1.1,0.4-1.6,0.4h-28.3c-1.3,0-2.4-0.7-3-1.8
	L490.6,83.5z"/>
<path id="Path_5" class="st0" d="M593.4,131.6c-27.1,0-51.9-17-51.9-51.3c0-32.4,23.8-51.1,49.9-51.1c27.1,0,46.8,18.9,47.6,48.8
	c0.1,3.1,0.1,5.4,0.2,6.9c0,1.9-1.5,3.4-3.3,3.4c0,0,0,0-0.1,0h-63.1c1,11.7,10.3,19.1,22.2,19.1c8,0.2,15.5-3.5,20.3-9.9
	c1.1-1.4,3.1-1.7,4.5-0.8l15.8,10.5c1.6,1.1,2,3.2,0.9,4.8l0,0C628,124.6,614.1,131.6,593.4,131.6z M573.4,69.2h34.1
	c-0.2-11.1-8.4-16-17-16C582.5,53.2,574.3,57.9,573.4,69.2L573.4,69.2z"/>
<g id="Group_11">
	<g id="Group_10">
		<path id="Path_6" class="st0" d="M194.1,176.1v23.1h-4.4v-23.1h-4.2v-3.9h4.2v-4.3c-0.2-2.4,0.6-4.7,2.2-6.4
			c1.5-1.4,3.6-2.2,5.7-2.1c2.6-0.2,5.2,0.8,7,2.8l-2.9,2.8c-1-1-2.3-1.6-3.8-1.6c-1.9,0-3.8,1-3.8,4.2v4.5h6.5v3.9L194.1,176.1z"/>
		<path id="Path_7" class="st0" d="M201.3,185.6c0-8.4,5.6-14.1,13-14.1c7.5,0,13,5.7,13,14.1c0,8.3-5.5,14.2-13,14.2
			S201.3,193.9,201.3,185.6z M222.6,185.6c0-6.2-3.6-9.9-8.3-9.9c-4.8,0-8.3,3.6-8.3,9.9c0,6.2,3.5,10,8.3,10
			C219.2,195.6,222.6,191.8,222.6,185.6z"/>
		<path id="Path_8" class="st0" d="M236.5,180.4v18.8H232v-27.1h4.5v3.2c1.1-2.2,3.3-3.5,5.7-3.6c1.6,0,3.2,0.4,4.5,1.3l-1.9,4.1
			c-1-0.7-2.1-1.1-3.3-1.1C239.1,176.4,237.1,178.1,236.5,180.4z"/>
		<path id="Path_9" class="st0" d="M254.3,181.5v17.7h-4.6v-27.1h4.5v3.2c1.7-2.5,4.6-3.9,7.6-3.8c3.4-0.2,6.6,1.6,8.1,4.7
			c1.9-3,5.3-4.8,8.9-4.7c5.7,0,9.4,3.6,9.4,11.1v16.6h-4.5V183c0-4.8-1.9-7.4-5.7-7.4c-3.4,0.1-6.2,2.6-6.7,5.9v17.6h-4.5v-16.2
			c0-4.8-1.9-7.4-5.7-7.4C257.7,175.8,254.9,178.2,254.3,181.5z"/>
		<path id="Path_10" class="st0" d="M305.8,199.7c-7.4,0-13.1-5.4-13.1-14.3c0-8.5,5.5-13.9,12.7-13.9c7.1,0,11.5,4.8,12,12.3
			c0,0.8,0.1,1.8,0.1,2.5h-20.3c0.2,5.9,4,9.5,8.7,9.5c3.2,0,6.3-1.6,8-4.4l3.3,2.4C314.8,197.6,310.4,199.9,305.8,199.7z
			 M297.4,182.5h15.5c-0.1-4-3.5-7.2-7.5-7.1C301.2,175.2,297.7,178.4,297.4,182.5L297.4,182.5z"/>
		<path id="Path_11" class="st0" d="M326.7,180.4v18.8h-4.5v-27.1h4.5v3.2c1.1-2.2,3.3-3.5,5.7-3.6c1.6,0,3.2,0.4,4.5,1.3l-1.9,4.1
			c-1-0.7-2.1-1.1-3.3-1.1C329.3,176.4,327.3,178.1,326.7,180.4z"/>
		<path id="Path_12" class="st0" d="M340,159.6h4.5v39.7H340V159.6z"/>
		<path id="Path_13" class="st0" d="M350.7,209.7l6.6-15l-9.7-22.5h4.8l7.4,17.5l7.1-17.5h4.7l-16.2,37.6L350.7,209.7L350.7,209.7z"
			/>
		<path id="Path_14" class="st0" d="M387.7,160.6h4.8v38.7h-4.8V160.6z"/>
		<path id="Path_15" class="st0" d="M404.1,181.6v17.7h-4.5v-27.1h4.5v3.6c1.7-2.8,4.8-4.4,8.1-4.2c6,0,10,3.6,10,11.1v16.6h-4.5
			v-16.2c0-4.9-2.3-7.4-6.3-7.4C407.9,175.8,404.9,178.2,404.1,181.6z"/>
		<path id="Path_16" class="st0" d="M436.4,199.7c-4.1,0-7.3-2.2-7.3-7.7v-16h-4.2v-3.9h4.2v-8h4.5v8h8.5v3.9h-8.5v15.7
			c0,3,1.5,3.9,3.3,3.9c1.3,0,2.5-0.6,3.3-1.5l2.7,2.8C441.2,198.8,438.9,199.8,436.4,199.7z"/>
		<path id="Path_17" class="st0" d="M456.3,199.7c-7.3,0-13.1-5.4-13.1-14.3c0-8.5,5.5-13.9,12.7-13.9c7.1,0,11.5,4.8,12,12.3
			c0,0.8,0.1,1.8,0.1,2.5h-20.3c0.2,5.9,4,9.5,8.7,9.5c3.2,0,6.3-1.6,8-4.4l3.3,2.4C465.2,197.6,460.9,199.9,456.3,199.7z
			 M447.9,182.5h15.5c-0.2-4-3.5-7.2-7.5-7.1C451.7,175.2,448.2,178.4,447.9,182.5L447.9,182.5z"/>
		<path id="Path_18" class="st0" d="M482.6,210.3h-2.2c-6.3,0-10.9-2.5-10.9-7.3c0-3.2,2.3-5.4,5.8-6.5c-1.2-0.6-2-1.9-2-3.3
			c0.1-1.8,1.2-3.3,2.8-4c-3.1-1.6-5-4.8-5-8.3c0-5.8,4.8-9.5,10.5-9.5c2.4,0,3.7,0.6,7.6,0.6h5.5v3.7h-4.5c1.1,1.5,1.8,3.3,1.8,5.2
			c0,5.8-4.6,9.6-10.3,9.6c-3.3,0-4,1.4-4,2.3c0,1.4,1.2,2,3.3,2.1l4.5,0.2c5.7,0.3,8.3,3.4,8.3,7.3
			C493.7,207.2,489.5,210.3,482.6,210.3z M482.6,206.5c4.3,0,6.6-1.5,6.6-3.8s-1.9-3.8-5.7-3.8h-2.8c-4.3,0.1-6.7,1.2-6.7,3.9
			c0,2.5,2.7,3.7,6.6,3.7L482.6,206.5L482.6,206.5z M481.6,186.8c3.2-0.2,5.6-2.9,5.4-6.1s-2.9-5.6-6.1-5.4c-3,0.2-5.4,2.7-5.4,5.7
			c-0.1,3.1,2.4,5.7,5.6,5.8C481.2,186.8,481.4,186.8,481.6,186.8L481.6,186.8z"/>
		<path id="Path_19" class="st0" d="M502.7,180.4v18.8h-4.5v-27.1h4.5v3.2c1.1-2.2,3.3-3.5,5.7-3.6c1.6,0,3.2,0.4,4.5,1.3l-1.9,4.1
			c-1-0.7-2.1-1.1-3.3-1.1C505.3,176.4,503.3,178.1,502.7,180.4z"/>
		<path id="Path_20" class="st0" d="M512.9,185.6c0-8.4,5.6-14.1,13-14.1c7.5,0,13,5.7,13,14.1c0,8.3-5.5,14.2-13,14.2
			S512.9,193.9,512.9,185.6z M534.2,185.6c0-6.2-3.6-9.9-8.3-9.9c-4.8,0-8.3,3.6-8.3,9.9c0,6.2,3.5,10,8.3,10
			C530.8,195.6,534.2,191.8,534.2,185.6L534.2,185.6z"/>
		<path id="Path_21" class="st0" d="M548.1,181.5v17.7h-4.5v-27.1h4.5v3.2c1.7-2.5,4.6-3.9,7.6-3.8c3.4-0.2,6.6,1.6,8.1,4.7
			c1.9-3,5.3-4.8,8.9-4.7c5.7,0,9.4,3.6,9.4,11.1v16.6h-4.5V183c0-4.8-1.9-7.4-5.8-7.4c-3.4,0.1-6.2,2.6-6.7,5.9v17.6h-4.5v-16.2
			c0-4.8-1.9-7.4-5.8-7.4C551.5,175.8,548.7,178.2,548.1,181.5z"/>
		<path id="Path_22" class="st0" d="M595.6,199.7c-4.5,0-9.1-2.9-9.1-8.3c0-4.5,3.1-7,9.9-8.8l7.4-1.9c-0.3-3.2-2.9-5-6.3-5
			c-3-0.1-5.7,1.5-7.1,4.1l-3.8-2c2.2-4,6.6-6.4,11.2-6.2c5.8,0,10.4,2.9,10.4,9.7v18h-4.4v-3l-0.5,0.4
			C601.2,198.6,598.5,199.6,595.6,199.7z M602.7,193l1.2-0.9v-7.7l-5.8,1.5c-4.8,1.3-7,2.4-7,5.2c0.1,2.6,2.4,4.6,5,4.5h0.1
			C598.7,195.7,601,194.7,602.7,193L602.7,193z"/>
		<path id="Path_23" class="st0" d="M622.7,199.7c-4.1,0-7.3-2.2-7.3-7.7v-16h-4.2v-3.9h4.2v-8h4.5v8h8.5v3.9h-8.5v15.7
			c0,3,1.5,3.9,3.3,3.9c1.3,0,2.5-0.6,3.3-1.5l2.7,2.8C627.5,198.8,625.2,199.8,622.7,199.7z"/>
	</g>
</g>
</svg>
