<svg xmlns="http://www.w3.org/2000/svg" width="385.374" height="98.161" viewBox="0 0 385.374 98.161"><g transform="translate(0 0)"><path d="M4.07,98.159a4.037,4.037,0,0,1-3.17-1.4,4.2,4.2,0,0,1-.409-4.627c.8-1.747,4.7-8.971,6.539-12.361a32.691,32.691,0,0,1-3.767-15.8V32.5A32.523,32.523,0,0,1,35.747,0H67.235A32.523,32.523,0,0,1,99.72,32.5V63.99A32.523,32.523,0,0,1,67.235,96.457H35.747c-6.822,0-12.05-1.538-17.125-5.1l-.559.231L5.985,97.743a3.146,3.146,0,0,1-.7.259,5.022,5.022,0,0,1-1.216.157ZM19.1,84.257a3.3,3.3,0,0,1,2.055.7c4.424,3.495,8.513,4.847,14.591,4.847H67.232A25.862,25.862,0,0,0,93.076,63.959V32.5A25.862,25.862,0,0,0,67.235,6.64H35.747A25.862,25.862,0,0,0,9.9,32.5V63.99a25.365,25.365,0,0,0,3.736,13.937,3.313,3.313,0,0,1,.122,3.38c-.828,1.52-2.331,4.281-3.757,6.944l5.169-2.628.238-.108,2.415-1.007a3.271,3.271,0,0,1,1.276-.252Z" transform="translate(-0.003 0)"></path><path d="M116.17,85.867a3.313,3.313,0,0,0-2.708-1.4h-32.3L79.555,80.16A3.317,3.317,0,0,0,76.448,78h-5.8a3.32,3.32,0,0,0,0,6.64h3.495l1.58,4.225,5.917,18.788a3.317,3.317,0,0,0,3.166,2.324h22.017a3.317,3.317,0,0,0,3.145-2.219l6.64-18.872a3.313,3.313,0,0,0-.44-3.02Zm-11.7,17.474H87.24L83.4,91.109h25.386Z" transform="translate(-43.8 -50.74)"></path><circle cx="4.718" cy="4.718" r="4.718" transform="translate(34.713 60.461)"></circle><circle cx="4.718" cy="4.718" r="4.718" transform="translate(60.575 60.461)"></circle><path d="M353.806,122.683a18.893,18.893,0,0,1-8.29-1.786,20.3,20.3,0,0,1-6.385-4.746A21.979,21.979,0,0,1,333.54,101.6,20.84,20.84,0,0,1,335.1,93.63a22.045,22.045,0,0,1,4.274-6.738,20.473,20.473,0,0,1,6.472-4.655,19.2,19.2,0,0,1,8.125-1.73,18.271,18.271,0,0,1,8.23,1.845,20.592,20.592,0,0,1,6.357,4.833,22.367,22.367,0,0,1,4.1,6.794,21.434,21.434,0,0,1,1.464,7.734,21.073,21.073,0,0,1-1.524,7.937,21.57,21.57,0,0,1-4.208,6.675,20.336,20.336,0,0,1-6.441,4.627A19.221,19.221,0,0,1,353.806,122.683ZM341.739,101.6a16.66,16.66,0,0,0,.821,5.214,13.882,13.882,0,0,0,2.37,4.452,11.333,11.333,0,0,0,17.925-.115,14.269,14.269,0,0,0,2.345-4.484,16.624,16.624,0,0,0,.79-5.068,16.2,16.2,0,0,0-.835-5.211,14.371,14.371,0,0,0-2.4-4.452,11.47,11.47,0,0,0-3.809-3.075,11.851,11.851,0,0,0-10.278.059,11.585,11.585,0,0,0-3.809,3.163,14.241,14.241,0,0,0-2.314,4.452,16.617,16.617,0,0,0-.8,5.064Z" transform="translate(-216.974 -52.371)"></path><path d="M510.23,142.226h-7.856V125q0-3.691-1.262-5.389a4.092,4.092,0,0,0-3.495-1.7,6.574,6.574,0,0,0-4.393,1.786,9.855,9.855,0,0,0-2.915,4.655v17.869h-7.853V125q0-3.691-1.258-5.389a4.1,4.1,0,0,0-3.495-1.7,6.7,6.7,0,0,0-4.362,1.747,9.548,9.548,0,0,0-2.953,4.638v17.925H462.54v-30.7h7.087v5.683a11.722,11.722,0,0,1,4.659-4.6A13.92,13.92,0,0,1,481.052,111a8.7,8.7,0,0,1,5.973,1.873,8.349,8.349,0,0,1,2.695,4.627,13.256,13.256,0,0,1,4.746-4.83,12.781,12.781,0,0,1,6.56-1.671,9.153,9.153,0,0,1,4.627,1.048,7.594,7.594,0,0,1,2.813,2.75,11.565,11.565,0,0,1,1.377,3.89,25.533,25.533,0,0,1,.388,4.386Z" transform="translate(-300.891 -72.203)"></path><path d="M643.328,142.227h-7.839V125q0-3.691-1.29-5.389a4.236,4.236,0,0,0-3.575-1.7,6.759,6.759,0,0,0-2.4.468,8.853,8.853,0,0,0-2.314,1.318,10.665,10.665,0,0,0-1.961,2.02,7.982,7.982,0,0,0-1.29,2.579v17.925H614.8v-30.7h7.088v5.683a11.617,11.617,0,0,1,4.921-4.571A15.807,15.807,0,0,1,634.07,111a9.288,9.288,0,0,1,4.687,1.048,7.622,7.622,0,0,1,2.8,2.75,11.565,11.565,0,0,1,1.394,3.89,25.533,25.533,0,0,1,.381,4.393Z" transform="translate(-399.939 -72.204)"></path><path d="M712.28,81.9h0a3.9,3.9,0,0,1,3.9-3.9h.056a3.9,3.9,0,0,1,3.9,3.9h0a3.9,3.9,0,0,1-3.9,3.893h-.056A3.9,3.9,0,0,1,712.28,81.9Zm0,38.866v-30.7h7.849v30.7Z" transform="translate(-463.351 -50.74)"></path><path d="M747.68,101.393a21.508,21.508,0,0,1,1.377-7.528A20.172,20.172,0,0,1,759.51,82.472a19.921,19.921,0,0,1,8.671-1.817,18.9,18.9,0,0,1,9.929,2.52,16.076,16.076,0,0,1,6.238,6.56l-6.21,4.285a10.632,10.632,0,0,0-1.989-2.96,9.985,9.985,0,0,0-2.52-1.9,11.292,11.292,0,0,0-2.8-1.027,13.42,13.42,0,0,0-2.869-.322,10.89,10.89,0,0,0-5.3,1.23,11.67,11.67,0,0,0-3.75,3.194,14.059,14.059,0,0,0-2.254,4.449,16.885,16.885,0,0,0-.762,4.952,16.13,16.13,0,0,0,.881,5.3,14.093,14.093,0,0,0,2.488,4.48,12.456,12.456,0,0,0,3.865,3.1,10.551,10.551,0,0,0,4.931,1.171,13.035,13.035,0,0,0,2.929-.349,11.025,11.025,0,0,0,2.9-1.115,10.894,10.894,0,0,0,2.548-1.961,9.032,9.032,0,0,0,1.877-2.9l6.619,3.809a12.5,12.5,0,0,1-2.841,4.127,18.221,18.221,0,0,1-4.159,3.016,21.254,21.254,0,0,1-4.952,1.877,21.619,21.619,0,0,1-5.155.643,17.687,17.687,0,0,1-8.15-1.873,21.19,21.19,0,0,1-6.357-4.893,22.715,22.715,0,0,1-4.127-6.853,21.371,21.371,0,0,1-1.51-7.825Z" transform="translate(-486.38 -52.465)"></path><path d="M890.948,120.763H883.1V103.54q0-3.635-1.349-5.361a4.551,4.551,0,0,0-3.806-1.726,6.022,6.022,0,0,0-2.226.468,8.608,8.608,0,0,0-2.226,1.318,11.209,11.209,0,0,0-1.933,2.02,7.983,7.983,0,0,0-1.29,2.579v17.925H862.42V78h7.849V95.75a11.826,11.826,0,0,1,4.585-4.6,12.994,12.994,0,0,1,6.427-1.618,10.1,10.1,0,0,1,4.861,1.024,7.738,7.738,0,0,1,2.929,2.726,11.208,11.208,0,0,1,1.464,3.865,23.954,23.954,0,0,1,.412,4.452Z" transform="translate(-561.02 -50.74)"></path><path d="M964.483,142.8a11.694,11.694,0,0,1-4.159-.73,10.02,10.02,0,0,1-3.338-2.051,9.507,9.507,0,0,1-2.2-3.075,9.3,9.3,0,0,1-.79-3.855,8.535,8.535,0,0,1,.965-4.012,9.258,9.258,0,0,1,2.695-3.145,13.4,13.4,0,0,1,4.12-2,17.97,17.97,0,0,1,5.27-.734,22.786,22.786,0,0,1,4.016.349,16.356,16.356,0,0,1,3.495,1V122.8a6.148,6.148,0,0,0-1.73-4.687,7.189,7.189,0,0,0-5.123-1.639,13.63,13.63,0,0,0-4.805.877,22.365,22.365,0,0,0-4.8,2.579l-2.4-4.98A22.643,22.643,0,0,1,968.457,111q6.616,0,10.278,3.25t3.663,9.4V133.2a2.7,2.7,0,0,0,.44,1.747,1.908,1.908,0,0,0,1.433.587v6.679a17.537,17.537,0,0,1-3.456.409,5.224,5.224,0,0,1-3.425-1,4.285,4.285,0,0,1-1.5-2.635l-.175-1.7a13.566,13.566,0,0,1-4.98,4.113A14.3,14.3,0,0,1,964.483,142.8Zm2.226-5.739a10.164,10.164,0,0,0,3.778-.7,6.829,6.829,0,0,0,2.8-1.873,2.82,2.82,0,0,0,1.29-2.226v-3.509a19.244,19.244,0,0,0-3.047-.853,16.52,16.52,0,0,0-3.163-.322,8.4,8.4,0,0,0-4.98,1.377,4.131,4.131,0,0,0-1.933,3.495,4.194,4.194,0,0,0,1.524,3.313,5.539,5.539,0,0,0,3.726,1.307Z" transform="translate(-620.593 -72.207)"></path><path d="M1064.215,123.083a34.786,34.786,0,0,1-3.865,1.4,16.254,16.254,0,0,1-4.8.7,11.164,11.164,0,0,1-3.076-.409,6.766,6.766,0,0,1-2.52-1.318,6.4,6.4,0,0,1-1.726-2.342,8.422,8.422,0,0,1-.647-3.495V100h-4.04V93.971h4.04V84h7.849v9.957h6.444v6.032h-6.444V115a2.786,2.786,0,0,0,.849,2.314,3.229,3.229,0,0,0,2.1.674,7.22,7.22,0,0,0,2.4-.409q1.174-.416,1.877-.7Z" transform="translate(-678.841 -54.643)"></path></g></svg>