<?xml version="1.0" encoding="UTF-8" standalone="no"?>
<svg
   xmlns:dc="http://purl.org/dc/elements/1.1/"
   xmlns:cc="http://creativecommons.org/ns#"
   xmlns:rdf="http://www.w3.org/1999/02/22-rdf-syntax-ns#"
   xmlns:svg="http://www.w3.org/2000/svg"
   xmlns="http://www.w3.org/2000/svg"
   xmlns:sodipodi="http://sodipodi.sourceforge.net/DTD/sodipodi-0.dtd"
   xmlns:inkscape="http://www.inkscape.org/namespaces/inkscape"
   width="700"
   height="700"
   viewBox="0 0 700 700"
   version="1.1"
   id="svg24"
   sodipodi:docname="certsign-logo.svg"
   style="fill:none"
   inkscape:export-filename="G:\Users\suitedoalex\sites\certsign-logo-0.png"
   inkscape:export-xdpi="561.73712"
   inkscape:export-ydpi="561.73712"
   inkscape:version="0.92.4 (5da689c313, 2019-01-14)">
  <metadata
     id="metadata30">
    <rdf:RDF>
      <cc:Work
         rdf:about="">
        <dc:format>image/svg+xml</dc:format>
        <dc:type
           rdf:resource="http://purl.org/dc/dcmitype/StillImage" />
        <dc:title></dc:title>
      </cc:Work>
    </rdf:RDF>
  </metadata>
  <defs
     id="defs28" />
  <sodipodi:namedview
     pagecolor="#ffffff"
     bordercolor="#666666"
     borderopacity="1"
     objecttolerance="10"
     gridtolerance="10"
     guidetolerance="10"
     inkscape:pageopacity="0"
     inkscape:pageshadow="2"
     inkscape:window-width="1600"
     inkscape:window-height="837"
     id="namedview26"
     showgrid="false"
     inkscape:zoom="0.54893816"
     inkscape:cx="254.07465"
     inkscape:cy="406.76816"
     inkscape:window-x="-8"
     inkscape:window-y="-8"
     inkscape:window-maximized="1"
     inkscape:current-layer="svg24" />
  <path
     d="m 453.15114,394.01342 c -7.20019,6.92995 -16.76291,10.41044 -28.67263,10.41044 -4.59746,0 -9.09933,-0.71511 -13.53764,-2.16135 -0.31928,-0.0956 -0.63855,-0.23871 -0.95782,-0.3498 -22.01492,51.78149 -73.35704,88.0982 -133.19196,88.0982 -29.82162,0 -57.50441,-9.04327 -80.52519,-24.50806 -1.34066,-0.90578 -3.00108,-1.16 -4.54991,-0.65156 l -46.0736,14.82875 13.79336,-46.5365 c 0.43137,-1.44623 0.15964,-2.98806 -0.71812,-4.21162 -16.73088,-23.60227 -26.58104,-52.41703 -26.58104,-83.53678 0,-79.88115 64.76786,-144.63178 144.6545,-144.63178 60.17021,0 111.75153,36.73006 133.55927,88.98846 6.25788,-4.83165 13.95299,-7.24772 23.08434,-7.24772 4.10303,0 8.36568,0.55647 12.77197,1.68495 2.04326,0.52444 4.10253,1.17601 6.20984,1.93866 -24.72875,-73.25345 -94.01479,-126.00428 -175.62542,-126.00428 -102.34845,0 -185.316096,82.94878 -185.316096,185.28772 0,33.70998 9.051826,65.27509 24.776896,92.50049 L 85.041289,532.9393 c -1.341016,4.10052 2.554312,7.99487 6.673161,6.67574 l 96.92039,-31.19932 c 26.21403,14.19271 56.24333,22.26714 88.14024,22.26714 86.95872,0 159.93243,-59.90298 179.88808,-140.67438 -1.03789,1.36667 -2.18688,2.73335 -3.51202,4.00494 z"
     id="path2"
     inkscape:connector-curvature="0"
     style="fill:#003a5d;stroke-width:5.00430059"
     inkscape:export-filename="G:\Users\suitedoalex\sites\certsign-logo-4.png"
     inkscape:export-xdpi="72.390572"
     inkscape:export-ydpi="72.390572" />
  <path
     d="m 208.68807,390.10856 c -2.65027,1.14398 -5.22048,2.00222 -7.72714,2.57471 -2.49064,0.57199 -4.98078,0.85824 -7.45541,0.85824 -4.86918,0 -9.53069,-0.98535 -13.98502,-2.94052 -4.46984,-1.95468 -8.55685,-4.79963 -12.26052,-8.55085 -4.42231,-4.52939 -7.71114,-10.02862 -9.882,-16.46565 -2.17137,-6.43704 -3.24079,-14.06559 -3.24079,-22.87065 0,-14.55851 3.6081,-26.4152 10.83982,-35.53804 7.23171,-9.12334 16.45964,-13.70027 27.68229,-13.70027 2.77788,0 5.50773,0.2382 8.19004,0.6991 2.6818,0.46089 5.30005,1.12846 7.85424,2.01873 v 23.10886 c -1.67594,-0.92179 -3.35237,-1.62089 -5.04433,-2.11382 -1.67644,-0.47691 -3.28883,-0.73113 -4.83766,-0.73113 -5.39563,0 -9.48264,2.25694 -12.26053,6.77082 -2.77789,4.51388 -4.1826,11.14158 -4.1826,19.89861 0,8.28061 1.38869,14.6701 4.15057,19.16797 2.76187,4.49785 6.65722,6.77081 11.70205,6.77081 1.8521,0 3.65565,-0.27023 5.39614,-0.79468 1.74,-0.52445 3.43245,-1.30362 5.07636,-2.30499 v 24.14275 z"
     id="path4"
     inkscape:connector-curvature="0"
     style="fill:#003a5d;stroke-width:5.00430059"
     inkscape:export-filename="G:\Users\suitedoalex\sites\certsign-logo-4.png"
     inkscape:export-xdpi="72.390572"
     inkscape:export-ydpi="72.390572" />
  <path
     d="m 270.90203,367.98705 c -0.97383,7.91481 -4.05498,14.16117 -9.24344,18.70658 -5.18846,4.56142 -11.86169,6.83437 -19.98768,6.83437 -9.5467,0 -16.90652,-3.06764 -22.07897,-9.20241 -5.17244,-6.13477 -7.75866,-14.87628 -7.75866,-26.24005 0,-11.39579 2.60224,-20.24889 7.82272,-26.52679 5.21998,-6.2779 12.51575,-9.44061 21.87129,-9.44061 10.21728,0 17.83233,2.7974 22.87716,8.3757 5.04484,5.5948 7.55098,14.01854 7.55098,25.28673 0,1.31913 -0.016,2.32049 -0.032,3.00407 -0.016,0.6836 -0.0796,1.30312 -0.15964,1.87561 h -35.93585 v 0.9218 c 0,4.97477 0.55848,8.53483 1.69195,10.69619 1.13348,2.16136 2.96956,3.22627 5.53976,3.22627 1.90014,0 3.43245,-0.61952 4.61397,-1.84358 1.1655,-1.23957 2.02724,-3.13119 2.55419,-5.67388 z M 235.8279,349.31201 h 14.52748 c 0,-3.83029 -0.60653,-6.70727 -1.81956,-8.61441 -1.21355,-1.90714 -3.03362,-2.87646 -5.47621,-2.87646 -1.89964,0 -3.43245,0.9378 -4.61347,2.81291 -1.1655,1.8596 -2.04375,4.75208 -2.61824,8.67796 z"
     id="path6"
     inkscape:connector-curvature="0"
     style="fill:#003a5d;stroke-width:5.00430059"
     inkscape:export-filename="G:\Users\suitedoalex\sites\certsign-logo-4.png"
     inkscape:export-xdpi="72.390572"
     inkscape:export-ydpi="72.390572" />
  <path
     d="m 274.85743,391.60985 v -67.59558 h 23.06883 v 9.44111 c 2.12282,-3.43345 4.72505,-6.08773 7.79069,-7.99487 3.06513,-1.89112 6.62519,-3.0196 10.63214,-3.3694 v 23.82448 h -0.52695 c -6.05021,0 -10.28084,1.12847 -12.69192,3.40142 -2.41056,2.27296 -3.60759,6.30992 -3.60759,12.11091 v 30.16592 h -24.6652 z"
     id="path8"
     inkscape:connector-curvature="0"
     style="fill:#003a5d;stroke-width:5.00430059"
     inkscape:export-filename="G:\Users\suitedoalex\sites\certsign-logo-4.png"
     inkscape:export-xdpi="72.390572"
     inkscape:export-ydpi="72.390572" />
  <path
     d="m 327.80093,391.61836 v -46.2027 h -8.15801 v -21.39288 h 8.15801 V 304.1557 h 24.72924 v 19.86708 h 8.81207 v 21.39288 h -8.81207 v 46.2027 z"
     id="path10"
     inkscape:connector-curvature="0"
     style="fill:#003a5d;stroke-width:5.00430059"
     inkscape:export-filename="G:\Users\suitedoalex\sites\certsign-logo-4.png"
     inkscape:export-xdpi="72.390572"
     inkscape:export-ydpi="72.390572" />
  <path
     d="m 402.08076,359.64288 c 3.8478,3.03561 7.39185,5.3401 10.64865,6.92946 3.24078,1.58937 6.08222,2.38405 8.52482,2.38405 2.17137,0 3.94339,-0.63555 5.33209,-1.90714 1.38919,-1.27159 2.09179,-2.87647 2.09179,-4.81564 0,-2.28896 -2.34701,-5.62633 -7.02453,-10.02912 -0.12761,-0.12711 -0.22369,-0.22219 -0.27174,-0.27023 -8.09395,-7.43789 -13.28241,-13.20735 -15.58089,-17.29186 -2.29897,-4.08501 -3.44846,-8.51932 -3.44846,-13.2714 0,-8.13749 2.77789,-14.84426 8.31765,-20.10528 5.53926,-5.26052 12.67539,-7.88328 21.37636,-7.88328 3.40042,0 6.92846,0.46091 10.56858,1.3827 3.63964,0.92179 7.40738,2.30447 11.30272,4.16407 v 25.0165 c -3.22477,-2.5587 -6.25837,-4.48185 -9.0838,-5.76946 -2.82593,-1.30312 -5.41215,-1.95468 -7.75867,-1.95468 -2.02774,0 -3.67216,0.54047 -4.90122,1.6214 -1.24506,1.08042 -1.85209,2.47912 -1.85209,4.1956 0,2.46362 2.31499,5.49922 6.96049,9.10732 0.3513,0.30177 0.62304,0.52446 0.79818,0.66758 8.04642,6.42102 13.2669,11.71356 15.64545,15.87765 2.39456,4.16407 3.57607,9.05928 3.57607,14.68561 0,9.40909 -2.98557,16.97409 -8.9562,22.67999 -5.97062,5.70591 -13.87292,8.55085 -23.73889,8.55085 -3.79977,0 -7.53548,-0.58801 -11.20714,-1.78003 -3.67215,-1.19202 -7.45541,-3.03561 -11.33474,-5.54676 v -26.6379 z"
     id="path12"
     inkscape:connector-curvature="0"
     style="fill:#ffa400;stroke-width:5.00430059"
     inkscape:export-filename="G:\Users\suitedoalex\sites\certsign-logo-4.png"
     inkscape:export-xdpi="72.390572"
     inkscape:export-ydpi="72.390572" />
  <path
     d="m 461.07095,300.95996 c 0,-4.13256 1.42071,-7.59703 4.24664,-10.39444 2.82543,-2.7974 6.30593,-4.1961 10.40845,-4.1961 4.10303,0 7.55149,1.3987 10.34539,4.1961 2.77738,2.79741 4.18259,6.26188 4.18259,10.39444 0,4.05298 -1.40521,7.48593 -4.21462,10.33087 -2.80991,2.84495 -6.24236,4.25966 -10.31336,4.25966 -4.10252,0 -7.58302,-1.41471 -10.40845,-4.22813 -2.82593,-2.81291 -4.24664,-6.26188 -4.24664,-10.3624 z m 2.31449,90.70494 v -67.59558 h 24.60164 v 67.59558 z"
     id="path14"
     inkscape:connector-curvature="0"
     style="fill:#ffa400;stroke-width:5.00430059"
     inkscape:export-filename="G:\Users\suitedoalex\sites\certsign-logo-4.png"
     inkscape:export-xdpi="72.390572"
     inkscape:export-ydpi="72.390572" />
  <path
     d="m 527.94041,323.93971 h 23.34006 v 64.62352 c 0,8.80507 -2.63427,15.59141 -7.88678,20.39153 -5.25202,4.79962 -12.72343,7.19969 -22.41426,7.19969 -8.34918,0 -14.76719,-1.84359 -19.25305,-5.54677 -4.48585,-3.70319 -7.02453,-9.23444 -7.59902,-16.6408 h 20.62622 c 0.12761,1.84359 0.73413,3.30584 1.82006,4.35474 1.08543,1.0489 2.5542,1.58937 4.40579,1.58937 2.25093,0 3.97541,-0.76266 5.17294,-2.27246 1.19703,-1.52581 1.78804,-3.7352 1.78804,-6.6277 v -11.49137 c -2.07578,2.98807 -4.35875,5.229 -6.8649,6.70727 -2.49064,1.47827 -5.30056,2.20939 -8.3817,2.20939 -6.44955,0 -11.51039,-2.90849 -15.15003,-8.7415 -3.64012,-5.83302 -5.4757,-13.9545 -5.4757,-24.39697 0,-10.4735 1.80356,-18.6115 5.39564,-24.42849 3.6081,-5.80099 8.63692,-8.70948 15.08647,-8.70948 2.95353,0 5.68338,0.6991 8.15801,2.08178 2.47462,1.38319 4.88519,3.52853 7.23221,6.43703 z m -11.41481,31.61216 c 0,4.52989 0.47891,7.96284 1.45275,10.29935 0.97383,2.3365 2.42658,3.49651 4.37426,3.49651 1.85209,0 3.24078,-1.12848 4.18259,-3.40143 0.9263,-2.27245 1.38919,-5.73743 1.38919,-10.39443 0,-4.62498 -0.47891,-8.12148 -1.42122,-10.48952 -0.95782,-2.38405 -2.3305,-3.56006 -4.15056,-3.56006 -1.89963,0 -3.35238,1.19203 -4.34224,3.59159 -0.98984,2.40006 -1.48477,5.88106 -1.48477,10.45799 z"
     id="path16"
     inkscape:connector-curvature="0"
     style="fill:#ffa400;stroke-width:5.00430059"
     inkscape:export-filename="G:\Users\suitedoalex\sites\certsign-logo-4.png"
     inkscape:export-xdpi="72.390572"
     inkscape:export-ydpi="72.390572" />
  <path
     d="M 556.89429,391.64839 V 324.0528 h 23.59527 v 10.02911 c 2.29898,-3.83028 4.9978,-6.65971 8.09546,-8.48728 3.09766,-1.82758 6.73579,-2.73385 10.93439,-2.73385 5.12441,0 9.01776,1.52581 11.70006,4.56142 2.66729,3.0361 4.00845,7.50194 4.00845,13.39851 v 50.82768 h -24.39097 v -39.35232 c 0,-2.06628 -0.40033,-3.62412 -1.20103,-4.657 -0.79568,-1.03289 -1.99672,-1.55734 -3.57306,-1.55734 -1.45426,0 -2.61976,0.588 -3.482,1.78003 -0.86224,1.19202 -1.29311,2.79691 -1.29311,4.81564 v 38.93946 h -24.39346 z"
     id="path18"
     inkscape:connector-curvature="0"
     style="fill:#ffa400;stroke-width:5.00430059"
     inkscape:export-filename="G:\Users\suitedoalex\sites\certsign-logo-4.png"
     inkscape:export-xdpi="72.390572"
     inkscape:export-ydpi="72.390572" />
  <path
     d="m 381.7598,318.46249 c 7.97084,0 14.43189,-6.43252 14.43189,-14.36784 0,-7.93482 -6.46105,-14.36784 -14.43189,-14.36784 -7.97035,0 -14.4319,6.43302 -14.4319,14.36784 0,7.93532 6.46155,14.36784 14.4319,14.36784 z"
     id="path20"
     inkscape:connector-curvature="0"
     style="fill:#003a5d;stroke-width:5.00430059"
     inkscape:export-filename="G:\Users\suitedoalex\sites\certsign-logo-4.png"
     inkscape:export-xdpi="72.390572"
     inkscape:export-ydpi="72.390572" />
  <path
     d="m 388.00516,321.17483 h -12.48423 c -6.1623,0 -11.15908,4.97477 -11.15908,11.10955 v 19.99418 c 0,3.78275 1.59636,7.16816 4.15057,9.56821 0.73462,0.6991 1.26108,1.58937 1.45274,2.59073 l 3.92738,21.48797 c 0.49492,2.7974 2.42658,5.38813 5.41215,5.38813 h 4.9007 c 2.98557,0 4.88521,-2.54319 5.41216,-5.38813 l 3.91136,-21.36086 c 0.19166,-1.08093 0.76615,-2.03474 1.54833,-2.7974 2.50665,-2.40007 4.071,-5.75344 4.071,-9.48865 v -19.99418 c 0.016,-6.13478 -4.98079,-11.10955 -11.14308,-11.10955 z"
     id="path22"
     inkscape:connector-curvature="0"
     style="fill:#003a5d;stroke-width:5.00430059"
     inkscape:export-filename="G:\Users\suitedoalex\sites\certsign-logo-4.png"
     inkscape:export-xdpi="72.390572"
     inkscape:export-ydpi="72.390572" />
</svg>
