<svg xmlns="http://www.w3.org/2000/svg" xmlns:xlink="http://www.w3.org/1999/xlink" width="155" height="36.419" viewBox="0 0 155 36.419">
  <defs>
    <linearGradient id="linear-gradient" x1="0.5" y1="-0.003" x2="0.5" y2="0.935" gradientUnits="objectBoundingBox">
      <stop offset="0.39" stop-color="#8d00d0"/>
      <stop offset="0.44" stop-color="#090512"/>
      <stop offset="0.45" stop-color="#0e0419"/>
      <stop offset="0.55" stop-color="#340350"/>
      <stop offset="0.65" stop-color="#54027e"/>
      <stop offset="0.74" stop-color="#6c01a1"/>
      <stop offset="0.83" stop-color="#7e00bb"/>
      <stop offset="0.9" stop-color="#8900ca"/>
      <stop offset="0.96" stop-color="#8d00d0"/>
    </linearGradient>
  </defs>
  <g id="benova_horizontal_positivo_cor" transform="translate(0 0)">
    <path id="Caminho_1" data-name="Caminho 1" d="M720.658,496.092a7.452,7.452,0,0,0-4.046-1.1,6.1,6.1,0,0,0-5.233,2.413V488.13h0l-4.528.675v23.228a15.766,15.766,0,0,0,3.415,1.021,20.669,20.669,0,0,0,3.934.389,11.487,11.487,0,0,0,5.344-1.169,8.5,8.5,0,0,0,3.526-3.34,10.132,10.132,0,0,0,1.262-5.178,10.331,10.331,0,0,0-.965-4.6,7.34,7.34,0,0,0-2.71-3.062ZM718.3,508.08a5.545,5.545,0,0,1-4.1,1.466,10.739,10.739,0,0,1-2.821-.371v-5.752a4.491,4.491,0,0,1,1.187-3.266,4.01,4.01,0,0,1,3.005-1.224,3.742,3.742,0,0,1,3.062,1.391,5.677,5.677,0,0,1,1.132,3.693,5.492,5.492,0,0,1-1.467,4.064Z" transform="translate(-664.013 -477.024)" fill="#fff"/>
    <path id="Caminho_2" data-name="Caminho 2" d="M849.16,547.605a10.025,10.025,0,0,1,1.132-4.843,8.362,8.362,0,0,1,3.136-3.285,8.787,8.787,0,0,1,4.565-1.187,8.4,8.4,0,0,1,4.51,1.206,8.257,8.257,0,0,1,3.044,3.378,11.113,11.113,0,0,1,1.1,5.066v.927H853.615a4.532,4.532,0,0,0,1.651,3.081,5.675,5.675,0,0,0,3.656,1.113,8.153,8.153,0,0,0,5.27-1.931l1.966,2.821a8.948,8.948,0,0,1-3.322,2.059,12.331,12.331,0,0,1-4.25.724,10.425,10.425,0,0,1-4.955-1.132,8.048,8.048,0,0,1-3.3-3.192A9.575,9.575,0,0,1,849.16,547.605Zm11.8-4.491a4.027,4.027,0,0,0-2.858-1.039,4.438,4.438,0,0,0-3.006,1.058,4.526,4.526,0,0,0-1.447,2.839H862.3a4.508,4.508,0,0,0-1.336-2.858Z" transform="translate(-786.837 -520.316)" fill="#fff"/>
    <path id="Caminho_3" data-name="Caminho 3" d="M995.26,538.846h4.157l.223,2.376a5.914,5.914,0,0,1,2.357-2.152,7.338,7.338,0,0,1,3.433-.779,5.915,5.915,0,0,1,4.677,1.892,7.7,7.7,0,0,1,1.67,5.27v10.727h-4.528v-9.948q0-3.933-3.341-3.934a3.737,3.737,0,0,0-3.007,1.317,5.436,5.436,0,0,0-1.113,3.619v8.945H995.26Z" transform="translate(-912.932 -520.316)" fill="#fff"/>
    <path id="Caminho_4" data-name="Caminho 4" d="M1134.31,547.484a9.188,9.188,0,0,1,1.224-4.751,8.815,8.815,0,0,1,3.341-3.266,10.248,10.248,0,0,1,9.575,0,8.835,8.835,0,0,1,3.341,3.266,9.8,9.8,0,0,1,0,9.483,8.912,8.912,0,0,1-3.341,3.3,10.1,10.1,0,0,1-9.575,0,8.963,8.963,0,0,1-3.341-3.285,9.185,9.185,0,0,1-1.224-4.751Zm4.528.037a5.379,5.379,0,0,0,1.354,3.8,4.512,4.512,0,0,0,3.471,1.466,4.432,4.432,0,0,0,3.433-1.466,6.105,6.105,0,0,0,.018-7.646,4.458,4.458,0,0,0-3.452-1.466,4.517,4.517,0,0,0-3.471,1.466,5.435,5.435,0,0,0-1.354,3.842Z" transform="translate(-1032.943 -520.307)" fill="#fff"/>
    <path id="Caminho_5" data-name="Caminho 5" d="M1279.266,554.672l4.639-12.322h4.788l-7.423,17.333h-4.231l-7.46-17.333h5.047Z" transform="translate(-1149.691 -523.82)" fill="#fff"/>
    <path id="Caminho_6" data-name="Caminho 6" d="M1410.53,551.242a5.362,5.362,0,0,1,2.061-4.472,9.561,9.561,0,0,1,5.995-1.614c.494,0,1.027.019,1.595.056s1.163.105,1.781.2v-.482q0-3.081-4.009-3.081a8.077,8.077,0,0,0-4.9,1.521l-1.781-2.932a11.978,11.978,0,0,1,7.163-2.152,8.8,8.8,0,0,1,5.845,1.744,6.073,6.073,0,0,1,2.061,4.9v11.246h-3.971l-.185-2.041a5.739,5.739,0,0,1-2.3,1.911,7.808,7.808,0,0,1-3.378.686,6.175,6.175,0,0,1-4.324-1.5,5.135,5.135,0,0,1-1.651-3.99Zm4.305-.445a2.319,2.319,0,0,0,.8,1.911,3.4,3.4,0,0,0,2.209.65,4.442,4.442,0,0,0,2.932-.983,3,3,0,0,0,1.187-2.393V548.2a17.566,17.566,0,0,0-2.858-.26,5.905,5.905,0,0,0-3.155.705,2.371,2.371,0,0,0-1.113,2.152Z" transform="translate(-1271.341 -520.316)" fill="#fff"/>
    <path id="Caminho_7" data-name="Caminho 7" d="M406.27,442.848h-3.329V428.213h3.486a8.865,8.865,0,0,0,8.855-8.855,9,9,0,0,0-8.855-9.01h-9.1v11.229H394V407.02h12.427a12.263,12.263,0,1,1-.157,24.525h0v11.306Z" transform="translate(-394 -407.02)" fill="url(#linear-gradient)"/>
    <path id="Caminho_8" data-name="Caminho 8" d="M415.326,513.819H402.94V510.49h12.386a9.077,9.077,0,0,0,8.855-9.056,8.848,8.848,0,0,0-8.855-8.855H394V489.25h21.326a12.2,12.2,0,0,1,12.185,12.185,12.371,12.371,0,0,1-12.185,12.385Z" transform="translate(-394 -477.991)" fill="#8d00d0"/>
  </g>
</svg>
