<?xml version="1.0" encoding="UTF-8"?>
<svg id="Layer_1" xmlns="http://www.w3.org/2000/svg" version="1.1" xmlns:xlink="http://www.w3.org/1999/xlink" viewBox="0 0 1080 1080">
  <!-- Generator: Adobe Illustrator 29.8.2, SVG Export Plug-In . SVG Version: 2.1.1 Build 3)  -->
  <defs>
    <style>
      .st0, .st1 {
        fill: none;
      }

      .st1 {
        stroke: #fff;
        stroke-miterlimit: 10;
        stroke-width: 2px;
      }

      .st2 {
        clip-path: url(#clippath);
      }
    </style>
    <clipPath id="clippath">
      <rect class="st0" width="1080" height="1080"/>
    </clipPath>
  </defs>
  <g class="st2">
    <g>
      <path class="st1" d="M-166-23.9v-196.1H21.4c101.2,0,183.2,84.7,183.2,185.9S122.6,149.1,21.4,149.1H-10.3v196.9h186.7c101.2,0,183.2-85.5,183.2-186.7S277.5-23.9,176.4-23.9H-166Z"/>
      <path class="st1" d="M180.5,345.9v-196.1h187.4c101.2,0,183.2,84.7,183.2,185.9s-82,184.1-183.2,184.1h-31.7v195.9h186.7c101.2,0,183.2-85.5,183.2-186.7s-82-183.2-183.2-183.2H180.5Z"/>
      <path class="st1" d="M873.1,1085.7v-196.1h187.4c101.2,0,183.2,84.7,183.2,185.9s-82,183.2-183.2,183.2h-31.7v196.9h186.7c101.2,0,183.2-85.5,183.2-186.7s-82-183.2-183.2-183.2h-342.4,0Z"/>
      <path class="st1" d="M526.6,715.9v-196.1h187.4c101.2,0,183.2,84.7,183.2,185.9s-82,183.2-183.2,183.2h-31.7v196.9h186.7c101.2,0,183.2-85.5,183.2-186.7s-82-183.2-183.2-183.2h-342.4,0Z"/>
    </g>
  </g>
</svg>